#!OML:ASF F:\VICON\USERDATA\INSTALL\rory3\rory3.ASF
:FULLY-SPECIFIED
:DEGREES
1
root 0.599491 17.2871 -32.2892 0.186132 -4.97391 -4.2204
lowerback 6.02532 -1.46218 -0.249278
upperback -2.01154 -1.64779 6.65887
thorax -5.29176 -0.693069 7.3413
lowerneck -2.93488 1.67312 -13.945
upperneck 18.3565 3.17185 2.0646
head 5.84775 0.750341 3.13194
rclavicle -8.69683e-015 1.27222e-014
rhumerus -25.1962 8.68668 -76.7535
rradius 36.6627
rwrist 0.780448
rhand -16.5093 15.8261
rfingers 7.12502
rthumb 9.70884 -13.9301
lclavicle -8.69683e-015 1.27222e-014
lhumerus -52.1841 23.9235 79.6589
lradius 23.8828
lwrist -19.7771
lhand -10.0667 29.9009
lfingers 7.12502
lthumb 15.9194 59.2666
rfemur 11.4684 7.53931 28.3656
rtibia 30.083
rfoot -16.6284 -9.0789
rtoes -19.3961
lfemur -18.4594 -2.51702 -12.3834
ltibia 1.27222e-014
lfoot 4.30992 4.75524
ltoes -13.6981
2
root 0.623328 17.2975 -32.0635 0.0255577 -4.78884 -4.04658
lowerback 5.69367 -1.26367 0.107178
upperback -1.61115 -1.40416 6.22685
thorax -4.72812 -0.607921 6.61176
lowerneck -3.72046 1.0621 -13.744
upperneck 19.0977 2.45914 2.14822
head 6.27663 0.388351 3.11475
rclavicle -3.67752e-015 6.36111e-015
rhumerus -24.7545 6.78532 -76.6275
rradius 36.6396
rwrist 0.639257
rhand -15.7821 17.4078
rfingers 7.12502
rthumb 10.4104 -12.3145
lclavicle -3.67752e-015 6.36111e-015
lhumerus -51.321 23.5692 79.4125
lradius 23.0703
lwrist -20.7258
lhand -10.0683 29.3812
lfingers 7.12502
lthumb 15.9179 58.7471
rfemur 11.7837 7.28423 28.0455
rtibia 30.9386
rfoot -15.3923 -8.49971
rtoes -20.182
lfemur -21.9341 -2.81119 -12.8237
ltibia 7.91272
lfoot 2.77296 4.51121
ltoes -16.4904
3
root 0.648252 17.3121 -31.8313 -0.0615803 -4.54311 -3.75735
lowerback 5.50776 -0.92249 0.411329
upperback -1.40004 -0.962539 5.69308
thorax -4.46179 -0.410786 5.80936
lowerneck -4.3325 0.708045 -13.0175
upperneck 18.8553 1.94925 2.40948
head 6.33773 0.225159 3.05506
rclavicle -3.37188e-014 6.52014e-014
rhumerus -24.7233 4.39872 -76.4213
rradius 36.9245
rwrist 0.277218
rhand -14.6481 17.41
rfingers 7.12502
rthumb 11.5041 -12.2543
lclavicle -3.37188e-014 6.52014e-014
lhumerus -50.5145 22.6833 79.2756
lradius 22.2127
lwrist -21.8205
lhand -9.71387 29.1771
lfingers 7.12502
lthumb 16.2592 58.5154
rfemur 11.7687 7.03357 27.6084
rtibia 32.2123
rfoot -14.0136 -8.00069
rtoes -20.4493
lfemur -22.9244 -3.129 -13.2705
ltibia 10.9962
lfoot 2.53076 3.76971
ltoes -17.1369
4
root 0.67058 17.3307 -31.6067 -0.236236 -4.21384 -3.51023
lowerback 5.85104 -1.04994 0.316266
upperback -2.18112 -1.09359 5.59076
thorax -5.46447 -0.448969 5.80486
lowerneck -1.99709 0.800928 -13.2926
upperneck 19.016 1.74366 2.41098
head 6.0039 0.0944974 3.06822
rclavicle 2.08724e-014 -3.18055e-014
rhumerus -26.5422 4.07445 -76.322
rradius 37.1318
rwrist 0.286966
rhand -14.5821 17.7814
rfingers 7.12502
rthumb 11.5678 -11.8793
lclavicle 2.08724e-014 -3.18055e-014
lhumerus -52.2242 22.5514 78.4268
lradius 21.681
lwrist -22.5105
lhand -9.87692 29.1691
lfingers 7.12502
lthumb 16.1022 58.5201
rfemur 11.7011 6.81903 27.2922
rtibia 33.6354
rfoot -12.2103 -7.43606
rtoes -19.922
lfemur -23.4585 -2.97332 -13.8693
ltibia 13.354
lfoot 2.0991 1.94585
ltoes -14.6802
5
root 0.694011 17.3366 -31.3749 -0.484041 -3.88591 -3.06649
lowerback 5.83209 -1.06971 -0.0794399
upperback -2.21558 -1.15949 5.41875
thorax -5.47851 -0.470112 5.85434
lowerneck -1.98392 1.27272 -12.731
upperneck 18.7004 2.30067 2.62502
head 5.84916 0.434312 3.06805
rclavicle -5.31749e-015 -3.02153e-014
rhumerus -26.9961 3.02689 -76.0214
rradius 36.508
rwrist 1.08512
rhand -15.5655 20.8854
rfingers 7.12502
rthumb 10.6193 -8.82625
lclavicle -5.31749e-015 -3.02153e-014
lhumerus -52.3595 22.9701 77.738
lradius 20.8361
lwrist -23.3057
lhand -10.1689 29.2064
lfingers 7.12502
lthumb 15.821 58.5799
rfemur 11.5264 6.42477 26.6807
rtibia 35.3846
rfoot -10.1217 -6.81881
rtoes -20.3599
lfemur -23.5425 -2.99995 -14.6304
ltibia 15.0063
lfoot 2.07231 -0.04927
ltoes -13.0792
6
root 0.719132 17.3397 -31.1358 -0.727079 -3.63674 -2.46662
lowerback 5.59539 -0.918356 -0.73467
upperback -1.66255 -1.04629 5.21806
thorax -4.76546 -0.417203 5.97757
lowerneck -3.57495 0.415253 -12.8343
upperneck 19.6207 1.40522 2.56721
head 6.49211 -0.0466354 3.05001
rclavicle 1.31695e-014 1.27222e-014
rhumerus -26.5429 2.39637 -76.0972
rradius 37.9242
rwrist -0.149825
rhand -16.111 15.9509
rfingers 7.12502
rthumb 10.0931 -13.787
lclavicle 1.31695e-014 1.27222e-014
lhumerus -51.1744 23.6341 77.415
lradius 19.7973
lwrist -24.544
lhand -10.2507 29.0078
lfingers 7.12502
lthumb 15.7422 58.3876
rfemur 11.1368 6.09752 25.8464
rtibia 37.387
rfoot -7.64974 -6.1292
rtoes -20.3116
lfemur -23.3794 -2.92757 -15.5884
ltibia 16.3056
lfoot 2.16252 -1.81801
ltoes -13.0685
7
root 0.741494 17.3513 -30.9051 -1.02763 -3.4764 -1.86844
lowerback 5.85598 -1.19778 -1.10647
upperback -2.51797 -1.41939 5.10023
thorax -5.76804 -0.557097 6.14049
lowerneck -0.582987 0.956593 -13.487
upperneck 19.0177 1.68529 2.79388
head 5.75941 0.0759006 3.20706
rclavicle 9.64106e-015 -4.77083e-015
rhumerus -28.7794 2.38102 -75.8939
rradius 38.2182
rwrist -0.600664
rhand -14.6921 17.2829
rfingers 7.12502
rthumb 11.4617 -12.3838
lclavicle 9.64106e-015 -4.77083e-015
lhumerus -53.6307 24.6 75.4626
lradius 19.1673
lwrist -25.9522
lhand -10.3038 28.6405
lfingers 7.12502
lthumb 15.6911 58.0243
rfemur 10.5642 5.70912 24.9293
rtibia 39.5586
rfoot -4.56007 -5.49643
rtoes -19.793
lfemur -23.0223 -2.76246 -16.5538
ltibia 17.4917
lfoot 2.04618 -2.76231
ltoes -12.1317
8
root 0.76559 17.3654 -30.6803 -1.29175 -3.42143 -1.37261
lowerback 5.89003 -1.01803 -2.07108
upperback -1.80584 -1.27635 5.18005
thorax -5.03342 -0.482111 6.74362
lowerneck -3.00838 0.623032 -13.0195
upperneck 19.3499 1.62892 2.49436
head 6.29109 0.0530914 3.06003
rclavicle -1.98785e-016 3.18055e-014
rhumerus -27.8169 1.32627 -75.3433
rradius 38.3254
rwrist -1.12949
rhand -14.6152 17.6022
rfingers 7.12502
rthumb 11.5358 -12.0603
lclavicle -1.98785e-016 3.18055e-014
lhumerus -52.2222 26.0413 75.1389
lradius 18.2196
lwrist -27.8238
lhand -10.2262 28.1529
lfingers 7.12502
lthumb 15.7658 57.5308
rfemur 9.80152 5.40492 24.114
rtibia 41.8039
rfoot -0.99047 -5.07839
rtoes -19.7289
lfemur -22.5571 -2.59004 -17.3809
ltibia 18.4922
lfoot 1.83636 -2.86546
ltoes -11.0412
9
root 0.792949 17.3801 -30.4552 -1.34818 -3.31069 -1.20777
lowerback 5.56845 -0.406557 -1.20902
upperback -1.30882 -0.445072 4.34305
thorax -4.44482 -0.128217 5.25263
lowerneck -4.23369 -0.270297 -12.3193
upperneck 19.658 0.431696 3.01296
head 6.68563 -0.44243 3.05437
rclavicle -1.54058e-015 3.97569e-014
rhumerus -27.8901 -2.02857 -75.2685
rradius 38.3941
rwrist -0.999222
rhand -14.1709 18.5775
rfingers 7.12502
rthumb 11.9643 -11.0606
lclavicle -1.54058e-015 3.97569e-014
lhumerus -50.3803 25.0759 74.7263
lradius 17.3463
lwrist -29.4869
lhand -10.1985 27.7601
lfingers 7.12502
lthumb 15.7925 57.1358
rfemur 8.77306 5.14829 23.6726
rtibia 44.0982
rfoot 2.85925 -4.78986
rtoes -15.5441
lfemur -22.2104 -2.45719 -17.8629
ltibia 19.3337
lfoot 1.65023 -2.43911
ltoes -10.5824
10
root 0.823193 17.4052 -30.233 -1.34002 -3.27805 -0.920272
lowerback 5.23773 1.26425 0.719347
upperback 0.390256 1.78752 2.28112
thorax -2.58564 0.894356 1.81183
lowerneck -10.1915 -2.64804 -9.65059
upperneck 21.1211 -2.65248 3.73157
head 8.4357 -1.64879 2.59592
rclavicle -8.34896e-015 -1.11319e-014
rhumerus -26.4187 -10.1347 -75.5826
rradius 38.5003
rwrist -0.325093
rhand -12.8597 20.2214
rfingers 7.12502
rthumb 13.2285 -9.33883
lclavicle -8.34896e-015 -1.11319e-014
lhumerus -44.0328 20.9753 76.0133
lradius 16.1684
lwrist -30.7263
lhand -10.2274 28.1853
lfingers 7.12502
lthumb 15.7647 57.5633
rfemur 7.52163 5.12505 23.1436
rtibia 46.4478
rfoot 6.40772 -4.53399
rtoes -8.72062
lfemur -21.8534 -2.34957 -18.4714
ltibia 20.1166
lfoot 1.32138 -2.01359
ltoes -10.5154
11
root 0.849016 17.426 -30.0207 -1.42673 -3.425 -0.535512
lowerback 5.32273 1.56475 0.625461
upperback 0.713071 2.16658 1.90322
thorax -2.29966 1.08157 1.44935
lowerneck -11.6302 -3.03877 -9.05183
upperneck 21.5049 -3.1593 3.66545
head 8.85498 -1.83926 2.40959
rclavicle -5.24295e-015 -1.03368e-014
rhumerus -26.4012 -11.7692 -75.6749
rradius 38.6381
rwrist -0.251855
rhand -14.6516 18.7258
rfingers 7.12502
rthumb 11.5008 -10.9388
lclavicle -5.24295e-015 -1.03368e-014
lhumerus -43.1062 20.4614 76.1738
lradius 16.4615
lwrist -30.7086
lhand -9.80386 28.8237
lfingers 7.12502
lthumb 16.1725 58.169
rfemur 6.26798 5.23121 22.5415
rtibia 48.8543
rfoot 9.33568 -3.84355
rtoes -4.12758
lfemur -21.2941 -2.06681 -19.1489
ltibia 20.6954
lfoot 0.844921 -2.21862
ltoes -10.2129
12
root 0.868895 17.4482 -29.8122 -1.56539 -3.5071 -0.317211
lowerback 5.5749 1.50843 0.359097
upperback 0.529559 2.0841 1.91858
thorax -2.63804 1.04372 1.61106
lowerneck -11.2495 -2.8526 -9.05043
upperneck 21.4546 -2.92603 3.61461
head 8.75011 -1.73777 2.42134
rclavicle 4.19933e-015 4.77083e-015
rhumerus -27.1681 -11.8539 -75.5985
rradius 38.6659
rwrist -0.342692
rhand -14.9691 18.6796
rfingers 7.12502
rthumb 11.1946 -11.0017
lclavicle 4.19933e-015 4.77083e-015
lhumerus -43.7125 19.9982 76.4573
lradius 17.2427
lwrist -29.6455
lhand -9.25508 29.4206
lfingers 7.12502
lthumb 16.7009 58.7222
rfemur 5.03258 5.35455 22.2492
rtibia 51.3393
rfoot 12.0504 -3.48637
rtoes 0.432328
lfemur -20.4963 -1.66309 -19.6366
ltibia 20.9055
lfoot 0.335954 -3.10162
ltoes -8.5992
13
root 0.888191 17.4812 -29.5974 -1.7512 -3.59375 0.233436
lowerback 5.65992 1.45768 -0.158141
upperback 0.594637 1.9813 1.81085
thorax -2.62948 0.997361 1.79709
lowerneck -11.6668 -2.48676 -9.14695
upperneck 21.702 -2.41212 3.85597
head 8.87849 -1.47993 2.57827
rclavicle 9.34288e-015 -7.15625e-015
rhumerus -27.4982 -11.9038 -75.6968
rradius 38.7392
rwrist -0.575282
rhand -14.9439 18.5586
rfingers 7.12502
rthumb 11.2188 -11.1214
lclavicle 9.34288e-015 -7.15625e-015
lhumerus -43.8172 19.9931 76.5611
lradius 17.6199
lwrist -28.9285
lhand -9.67548 28.8879
lfingers 7.12502
lthumb 16.2961 58.2232
rfemur 3.6681 5.51256 21.5762
rtibia 53.8724
rfoot 14.8552 -3.8289
rtoes 4.89127
lfemur -19.5372 -1.50733 -20.432
ltibia 20.9678
lfoot -0.285214 -3.19683
ltoes -7.72848
14
root 0.90391 17.5122 -29.3911 -1.9171 -3.66593 0.896584
lowerback 5.72444 1.45788 -0.775734
upperback 0.706807 1.9354 1.5765
thorax -2.56068 0.978838 1.90584
lowerneck -11.8392 -2.52061 -8.88837
upperneck 21.4546 -2.46288 3.71532
head 8.82335 -1.49164 2.47729
rclavicle 1.06598e-014 7.95139e-015
rhumerus -27.636 -12.3426 -75.9107
rradius 38.663
rwrist -0.647594
rhand -14.8455 18.1895
rfingers 7.12502
rthumb 11.3138 -11.4853
lclavicle 1.06598e-014 7.95139e-015
lhumerus -43.5701 19.9465 76.5511
lradius 17.8005
lwrist -28.3146
lhand -10.0244 28.0247
lfingers 7.12502
lthumb 15.9602 57.3872
rfemur 2.00491 5.71617 20.7905
rtibia 56.4329
rfoot 17.2666 -4.70534
rtoes 9.08555
lfemur -18.4866 -1.55333 -21.3008
ltibia 20.8337
lfoot -0.742391 -2.69311
ltoes -7.35691
15
root 0.914258 17.522 -29.2019 -2.1013 -3.66367 1.50252
lowerback 6.08967 1.35279 -1.44684
upperback 0.695131 1.74682 1.44899
thorax -2.78554 0.892994 2.15856
lowerneck -12.0102 -2.43194 -8.9679
upperneck 21.4727 -2.30992 3.72999
head 8.85195 -1.42389 2.51223
rclavicle -4.14963e-015 8.74653e-015
rhumerus -27.8413 -12.2897 -76.1364
rradius 38.5044
rwrist -0.685765
rhand -14.7266 18.176
rfingers 7.12502
rthumb 11.4284 -11.4925
lclavicle -4.14963e-015 8.74653e-015
lhumerus -43.3823 19.2894 77.1153
lradius 18.2365
lwrist -26.5838
lhand -9.92827 28.3369
lfingers 7.12502
lthumb 16.0527 57.6919
rfemur 0.675685 5.56683 20.0966
rtibia 58.9389
rfoot 17.1573 -5.31473
rtoes 6.54723
lfemur -17.4572 -1.49835 -22.1099
ltibia 20.5479
lfoot -0.864745 -2.6165
ltoes -6.70168
